<?xml version="1.0" encoding="UTF-8"?>
<svg version="1.1" xmlns="http://www.w3.org/2000/svg" width="496" height="503">
<path d="M0 0 C1.74732564 -0.00464725 3.49465031 -0.00967433 5.24197388 -0.01504517 C9.93113259 -0.02799425 14.62027712 -0.03458017 19.30945086 -0.03905582 C22.2615246 -0.04201722 25.21359471 -0.04612738 28.16566658 -0.05056 C37.46684033 -0.06419341 46.7680055 -0.07387837 56.06918854 -0.07776189 C66.68431919 -0.08222243 77.2993198 -0.09969435 87.91441101 -0.12876248 C96.19894257 -0.15063407 104.48343826 -0.16047962 112.76799828 -0.16180301 C117.67841107 -0.16283374 122.58870106 -0.16835819 127.49908257 -0.18662262 C157.74860526 -0.29272993 188.92319848 -0.3749494 218.61547852 6.16113281 C219.34831055 6.31243652 220.08114258 6.46374023 220.83618164 6.61962891 C240.39520976 10.7457463 257.64585589 18.99297227 272.54907227 32.32128906 C273.96104467 33.57845164 275.3918454 34.81470002 276.83813477 36.03222656 C302.25215011 57.69734771 310.86139659 90.25411589 313.49438477 122.28222656 C313.67589312 124.61414827 313.84859906 126.94639849 314.01367188 129.27954102 C314.17389001 131.54092593 314.34571189 133.80116692 314.51977539 136.06152344 C314.84518024 140.37120076 315.12989354 144.68291115 315.40649414 148.99597168 C315.55254535 151.20798208 315.70668459 153.41946668 315.86694336 155.63049316 C318.02087022 185.56248129 318.0161008 215.50406716 317.99180269 245.50101519 C317.9904705 247.54844634 317.9901768 249.59587517 317.99020004 251.64330673 C317.98910941 284.40498504 317.96205266 317.16660803 316.04999542 349.88355255 C315.9308219 351.9249273 315.81686957 353.96654625 315.70330811 356.00823975 C314.31407648 379.90626413 312.54735505 406.07764802 302.61547852 428.16113281 C302.3123877 428.84304688 302.00929688 429.52496094 301.69702148 430.22753906 C297.60822593 439.25739563 292.88862775 447.43938943 286.61547852 455.16113281 C285.96708008 455.96164062 285.31868164 456.76214844 284.65063477 457.58691406 C280.14082812 462.90044862 275.23211324 467.06796437 269.61547852 471.16113281 C268.40118164 472.11632812 268.40118164 472.11632812 267.16235352 473.09082031 C259.52045655 478.97096259 251.35114956 483.1796742 242.61547852 487.16113281 C241.55586914 487.64710938 240.49625977 488.13308594 239.40454102 488.63378906 C226.38503716 494.10599698 212.13818212 495.9061636 198.24047852 497.84863281 C197.38655518 497.96803223 196.53263184 498.08743164 195.65283203 498.21044922 C179.96968529 500.27681482 164.14323213 500.59234967 148.34985352 501.02734375 C145.13861574 501.11624715 141.92781683 501.21412779 138.71704102 501.31835938 C107.75841889 502.30746928 76.83256202 502.13336474 45.86547852 501.78613281 C44.88203587 501.77542 43.89859322 501.76470718 42.88534927 501.75366974 C-24.52262959 501.0181771 -24.52262959 501.0181771 -45.88452148 498.84863281 C-46.53366516 498.78455231 -47.18280884 498.7204718 -47.85162354 498.65444946 C-77.08422444 495.74970497 -106.85887241 490.14205423 -130.38452148 471.16113281 C-130.38452148 470.50113281 -130.38452148 469.84113281 -130.38452148 469.16113281 C-130.94139648 468.91363281 -131.49827148 468.66613281 -132.07202148 468.41113281 C-146.16363136 460.79404639 -155.04511099 444.091677 -161.51342773 430.05126953 C-162.26346125 428.42381453 -163.04023201 426.80872984 -163.82202148 425.19628906 C-177.31456985 394.45857731 -175.80408949 355.41370796 -176.33306885 322.28222656 C-176.39031847 318.80949057 -176.45320563 315.3368825 -176.5168457 311.86425781 C-177.67612883 248.33396473 -177.67612883 248.33396473 -177.4105835 220.93597412 C-177.38077144 217.76186245 -177.3557543 214.58772394 -177.33032227 211.41357422 C-176.15540552 74.08677565 -176.15540552 74.08677565 -137.97192383 35.66503906 C-101.43552981 1.05043015 -47.63144547 0.03025335 0 0 Z " fill="#2B3618" transform="translate(177.384521484375,-0.1611328125)"/>
<path d="M0 0 C4.77193995 4.11901076 9.23026052 8.35698926 10.09375 14.921875 C8.90725007 25.68363748 2.41530882 34.38704256 -5.19140625 41.75390625 C-8.10195826 43.20918225 -9.97232423 43.20457773 -13.19140625 42.75390625 C-14.56675964 40.78256639 -15.89351669 38.77708703 -17.19140625 36.75390625 C-19.6603737 34.69442608 -22.34490275 33.23333899 -25.19140625 31.75390625 C-26.05765625 31.2846875 -26.92390625 30.81546875 -27.81640625 30.33203125 C-37.07392434 25.85421 -46.76614539 24.92018012 -56.66796875 27.74609375 C-65.90362392 31.43577237 -73.14108246 35.67715506 -77.16796875 45.01953125 C-80.75900604 55.9604486 -81.24476356 68.59204978 -76.37890625 79.12890625 C-72.28893568 86.28013267 -67.06444026 92.04766992 -61.19140625 97.75390625 C-60.60746094 98.32367188 -60.02351563 98.8934375 -59.421875 99.48046875 C-50.34511575 107.70699992 -39.51407217 114.25937364 -29.23779297 120.85595703 C-20.27519236 126.61222459 -11.72025084 132.79098618 -3.3125 139.328125 C-1.39477274 140.81862391 0.52850371 142.30205566 2.4609375 143.7734375 C6.5324543 146.88296531 10.31244214 149.9888199 13.80859375 153.75390625 C14.42476562 154.41132813 15.0409375 155.06875 15.67578125 155.74609375 C20.28632187 160.77419277 24.226496 165.95176588 27.80859375 171.75390625 C28.17726563 172.33785156 28.5459375 172.92179688 28.92578125 173.5234375 C31.37147625 177.57115752 33.10217964 181.79612319 34.80078125 186.203125 C35.77036465 188.65714811 36.83116483 191.04464412 37.93359375 193.44140625 C46.56399389 212.73288891 45.19426764 238.95831719 38.80859375 258.75390625 C38.49664062 259.81996094 38.1846875 260.88601563 37.86328125 261.984375 C31.17109209 283.71993055 17.82536603 304.6529828 1.80859375 320.75390625 C1.34791504 321.22151367 0.88723633 321.68912109 0.41259766 322.17089844 C-2.76218375 325.39247485 -5.96942437 328.57946181 -9.19140625 331.75390625 C-9.7121875 332.29144531 -10.23296875 332.82898438 -10.76953125 333.3828125 C-12.43927996 334.99292733 -14.20833278 336.36577354 -16.06640625 337.75390625 C-16.72382813 338.24890625 -17.38125 338.74390625 -18.05859375 339.25390625 C-20.37309823 340.88168962 -22.75559899 342.31423509 -25.19140625 343.75390625 C-26.14015625 344.346875 -27.08890625 344.93984375 -28.06640625 345.55078125 C-30.85723314 347.29504806 -33.65972125 349.01541055 -36.47705078 350.71630859 C-38.04236075 351.66369785 -39.59974774 352.62414625 -41.15625 353.5859375 C-63.46996702 366.57539432 -93.83398017 373.37542997 -119.19140625 366.75390625 C-131.67593705 362.90111336 -143.23350423 354.93096163 -150.19140625 343.75390625 C-150.19140625 343.09390625 -150.19140625 342.43390625 -150.19140625 341.75390625 C-151.18140625 341.42390625 -152.17140625 341.09390625 -153.19140625 340.75390625 C-155.80484917 336.42005617 -157.11900381 331.879729 -158.31640625 327.00390625 C-159.41906536 322.26231637 -159.41906536 322.26231637 -161.19140625 317.75390625 C-161.42684421 313.74111592 -161.41987579 309.72643648 -161.43164062 305.70727539 C-161.44125152 303.72334709 -161.4724033 301.73956083 -161.50390625 299.75585938 C-161.53360502 292.43882377 -161.0127162 286.505358 -158.19140625 279.75390625 C-157.70220715 278.09015666 -157.22074003 276.42406933 -156.75390625 274.75390625 C-155.29521692 269.86654511 -153.38869434 265.3502742 -151.19140625 260.75390625 C-150.77117187 259.82707031 -150.3509375 258.90023438 -149.91796875 257.9453125 C-143.88567458 245.13085334 -134.88406224 234.89672913 -125.19140625 224.75390625 C-124.02931641 223.52994141 -124.02931641 223.52994141 -122.84375 222.28125 C-113.31292593 212.48147851 -102.10383108 202.88563339 -89.35546875 197.66015625 C-86.51549532 196.4708533 -83.82507223 195.04033822 -81.11328125 193.5859375 C-74.03686271 190.52236606 -64.10306967 190.49208896 -56.81640625 192.81640625 C-52.47995245 194.73551772 -49.06727202 198.02426783 -46.19140625 201.75390625 C-46.19140625 202.41390625 -46.19140625 203.07390625 -46.19140625 203.75390625 C-45.53140625 203.75390625 -44.87140625 203.75390625 -44.19140625 203.75390625 C-43.94390625 204.41390625 -43.69640625 205.07390625 -43.44140625 205.75390625 C-42.32692948 208.60136803 -42.32692948 208.60136803 -41.16796875 210.55078125 C-40.80445313 211.1953125 -40.4409375 211.83984375 -40.06640625 212.50390625 C-39.71320313 213.096875 -39.36 213.68984375 -38.99609375 214.30078125 C-37.75907141 218.0718979 -38.04883804 221.81902357 -38.19140625 225.75390625 C-39.44695312 225.71910156 -40.7025 225.68429687 -41.99609375 225.6484375 C-54.90933834 225.25121557 -54.90933834 225.25121557 -67.19140625 228.75390625 C-68.04347656 229.14449219 -68.89554687 229.53507813 -69.7734375 229.9375 C-85.74077635 238.00112033 -99.57492403 250.76146289 -109.19140625 265.75390625 C-109.79855469 266.63949219 -110.40570313 267.52507812 -111.03125 268.4375 C-118.08838069 278.95605631 -121.36976054 288.95598957 -121.37890625 301.50390625 C-121.39727539 302.80714844 -121.39727539 302.80714844 -121.41601562 304.13671875 C-121.42852101 309.68910881 -120.75918473 314.42469875 -119.19140625 319.75390625 C-118.53140625 319.75390625 -117.87140625 319.75390625 -117.19140625 319.75390625 C-116.53140625 320.68203125 -115.87140625 321.61015625 -115.19140625 322.56640625 C-111.70623606 326.85194983 -107.51422389 327.90742043 -102.19140625 328.75390625 C-96.3875746 329.11414408 -90.83296115 329.24165807 -85.19140625 327.75390625 C-82.85839692 327.71502276 -80.52430824 327.70904275 -78.19140625 327.75390625 C-78.19140625 327.09390625 -78.19140625 326.43390625 -78.19140625 325.75390625 C-76.77743723 325.24632763 -75.36008896 324.748157 -73.94140625 324.25390625 C-72.75804687 323.83625 -72.75804687 323.83625 -71.55078125 323.41015625 C-69.19140625 322.75390625 -69.19140625 322.75390625 -65.19140625 322.75390625 C-65.19140625 322.09390625 -65.19140625 321.43390625 -65.19140625 320.75390625 C-63.87140625 320.75390625 -62.55140625 320.75390625 -61.19140625 320.75390625 C-61.19140625 320.09390625 -61.19140625 319.43390625 -61.19140625 318.75390625 C-60.09828125 318.23828125 -59.00515625 317.72265625 -57.87890625 317.19140625 C-47.13585099 311.76333622 -38.12671903 304.71359233 -29.19140625 296.75390625 C-28.52238281 296.16996094 -27.85335937 295.58601563 -27.1640625 294.984375 C-9.99812369 279.03014951 1.53100499 255.41140321 2.44750977 232.13525391 C2.72623167 212.73676967 -1.98262198 198.69080238 -14.19140625 183.75390625 C-14.61043213 183.2237793 -15.02945801 182.69365234 -15.46118164 182.14746094 C-17.8976725 179.11250906 -20.29740527 176.70195965 -23.50390625 174.50390625 C-25.6171875 173.05078125 -25.6171875 173.05078125 -27.19140625 171.75390625 C-27.19140625 171.09390625 -27.19140625 170.43390625 -27.19140625 169.75390625 C-27.92423828 169.48892334 -28.65707031 169.22394043 -29.41210938 168.95092773 C-32.18056305 167.75857633 -34.26055408 166.41252864 -36.66015625 164.6015625 C-37.47871094 163.98990234 -38.29726563 163.37824219 -39.140625 162.74804688 C-39.98238281 162.11060547 -40.82414062 161.47316406 -41.69140625 160.81640625 C-43.36695695 159.55525285 -45.04399651 158.29607464 -46.72265625 157.0390625 C-47.46064453 156.480979 -48.19863281 155.92289551 -48.95898438 155.34790039 C-51.22764153 153.67024168 -51.22764153 153.67024168 -53.97070312 152.17358398 C-54.70353516 151.70509033 -55.43636719 151.23659668 -56.19140625 150.75390625 C-56.19140625 150.09390625 -56.19140625 149.43390625 -56.19140625 148.75390625 C-56.77317627 148.63998535 -57.35494629 148.52606445 -57.9543457 148.40869141 C-60.38380932 147.69759008 -61.93020779 146.74494167 -63.984375 145.27734375 C-64.69263428 144.77501221 -65.40089355 144.27268066 -66.13061523 143.75512695 C-66.87255127 143.21847412 -67.6144873 142.68182129 -68.37890625 142.12890625 C-69.52564819 141.30749146 -69.52564819 141.30749146 -70.69555664 140.46948242 C-93.5492745 124.03067248 -114.47251231 104.52878269 -120.19140625 75.75390625 C-120.79331853 70.42315826 -120.6538077 65.13812356 -120.31787109 59.79345703 C-120.20148207 57.91640323 -120.14104714 56.03610114 -120.0859375 54.15625 C-119.19120531 33.86759297 -108.21471378 17.89060711 -93.69140625 4.50390625 C-92.2056827 3.23697076 -90.70616448 1.98598072 -89.19140625 0.75390625 C-88.54171875 0.22023438 -87.89203125 -0.3134375 -87.22265625 -0.86328125 C-63.67107821 -18.34579879 -23.51656836 -16.55082841 0 0 Z " fill="#FAFAF9" transform="translate(309.19140625,72.24609375)"/>
<path d="M0 0 C8.89623135 -0.07100969 17.79235838 -0.12354654 26.68881607 -0.15543652 C30.82438746 -0.17077871 34.95975873 -0.19140097 39.09521484 -0.22631836 C62.56261392 -0.41924482 85.64806549 0.63494698 109 3 C109 3.66 109 4.32 109 5 C107.71073008 5.36279456 106.41846728 5.71496698 105.125 6.0625 C104.40570313 6.25972656 103.68640625 6.45695313 102.9453125 6.66015625 C101 7 101 7 99 6 C88.78313879 5.01508718 78.48505691 4.80890458 68.22845459 4.5541687 C56.13815156 4.2518004 44.06479481 3.87777919 32 3 C32 2.67 32 2.34 32 2 C21.44 1.67 10.88 1.34 0 1 C0 0.67 0 0.34 0 0 Z " fill="#212011" transform="translate(269,0)"/>
<path d="M0 0 C1.77146545 0.05336619 3.54294993 0.10610489 5.31445312 0.15820312 C9.60572194 0.28574876 13.89664523 0.42173775 18.1875 0.5625 C15.59685425 3.15314575 14.43513991 2.86161194 10.82421875 2.9765625 C9.71860596 3.01531494 8.61299316 3.05406738 7.47387695 3.09399414 C6.28624756 3.12485107 5.09861816 3.15570801 3.875 3.1875 C2.06745239 3.24442017 2.06745239 3.24442017 0.22338867 3.30249023 C-10.45618438 3.61325841 -21.12961612 3.66555033 -31.8125 3.5625 C-32.1425 2.5725 -32.4725 1.5825 -32.8125 0.5625 C-21.82657302 -0.63539698 -11.02214855 -0.36377754 0 0 Z " fill="#232514" transform="translate(159.8125,1.4375)"/>
<path d="M0 0 C0.495 1.98 0.495 1.98 1 4 C0.09121094 4.60134766 0.09121094 4.60134766 -0.8359375 5.21484375 C-6.62064372 9.13954443 -11.79532549 13.37278016 -16.87109375 18.1796875 C-19 20 -19 20 -22 21 C-22.28875 21.763125 -22.5775 22.52625 -22.875 23.3125 C-24.27503415 26.65702604 -26.09940129 27.89706593 -29 30 C-29.66 30.66 -30.32 31.32 -31 32 C-31.66 31.67 -32.32 31.34 -33 31 C-27.33930412 17.69736469 -11.71234889 7.65466675 0 0 Z " fill="#1D2115" transform="translate(61,19)"/>
<path d="M0 0 C-0.99 0 -1.98 0 -3 0 C-3.433125 0.8971875 -3.433125 0.8971875 -3.875 1.8125 C-5 4 -5 4 -7 7 C-7.78375 6.835 -8.5675 6.67 -9.375 6.5 C-14.05377862 5.60880407 -16.70092876 6.96771178 -21 9 C-21.33 9.66 -21.66 10.32 -22 11 C-22.99 11 -23.98 11 -25 11 C-25.103125 11.639375 -25.20625 12.27875 -25.3125 12.9375 C-25.539375 13.618125 -25.76625 14.29875 -26 15 C-26.99 15.33 -27.98 15.66 -29 16 C-30.03013277 17.64821244 -31.03114628 19.31503702 -32 21 C-32.66 21.33 -33.32 21.66 -34 22 C-34 21.34 -34 20.68 -34 20 C-34.66 19.67 -35.32 19.34 -36 19 C-11.14917348 -4.34628797 -11.14917348 -4.34628797 0 0 Z " fill="#D5DAD1" transform="translate(246,63)"/>
<path d="M0 0 C2 3 2 3 1.75 5.875 C1 9 1 9 0.0859375 11.08203125 C-1.45822168 15.23126473 -2.2525649 19.47940568 -3.125 23.8125 C-3.30675781 24.69615234 -3.48851562 25.57980469 -3.67578125 26.49023438 C-4.12132836 28.65934531 -4.56259977 30.82923423 -5 33 C-5.66 32.67 -6.32 32.34 -7 32 C-6.26639485 21.02121955 -4.27159067 10.17045397 0 0 Z " fill="#1E2112" transform="translate(14,73)"/>
<path d="M0 0 C2.171875 0.921875 2.171875 0.921875 4 2 C3.25556641 2.63615234 3.25556641 2.63615234 2.49609375 3.28515625 C-2.20478362 7.34378852 -6.65941812 11.56051879 -11 16 C-11.99885124 17.00114745 -12.99849737 18.00150489 -14 19 C-14 18.34 -14 17.68 -14 17 C-14.66 17 -15.32 17 -16 17 C-16 16.34 -16 15.68 -16 15 C-15.01 15 -14.02 15 -13 15 C-11.13448574 11.41247258 -9.57464072 7.72187807 -8 4 C-7.01 4.33 -6.02 4.66 -5 5 C-5 4.34 -5 3.68 -5 3 C-2.75 1.25 -2.75 1.25 0 0 Z " fill="#EAEFE6" transform="translate(218,312)"/>
<path d="M0 0 C1.16431731 3.49295194 0.77664641 4.18680249 -0.375 7.5625 C-2.73113835 15.54539798 -2.73635632 23.73613416 -3 32 C-3.99 31.34 -4.98 30.68 -6 30 C-6.328125 26.8046875 -6.328125 26.8046875 -6.25 22.875 C-6.23904297 22.20009521 -6.22808594 21.52519043 -6.21679688 20.82983398 C-6.11328979 16.15457668 -5.75287184 11.61134001 -5 7 C-4.01 6.67 -3.02 6.34 -2 6 C-0.77479736 2.99152582 -0.77479736 2.99152582 0 0 Z " fill="#CFD4C9" transform="translate(232,112)"/>
<path d="M0 0 C0.33 0 0.66 0 1 0 C0.59648009 5.95191871 -0.06011167 8.42121086 -4 13 C-6.09962529 16.61402496 -8.05616089 20.30022622 -10 24 C-10.66 23.67 -11.32 23.34 -12 23 C-9.55335331 14.54794779 -5.4053172 6.9067942 0 0 Z " fill="#1C2012" transform="translate(27,50)"/>
<path d="M0 0 C0 4.02627976 -1.73312762 5.73303687 -4 9 C-5.47339861 11.63660804 -6.36717344 14.04680941 -7 17 C-7.928125 17.144375 -8.85625 17.28875 -9.8125 17.4375 C-13.00725111 17.92100111 -13.00725111 17.92100111 -16 19 C-14.35437425 14.95896636 -11.50767109 12.06698427 -8.5625 8.9375 C-8.07201172 8.40833984 -7.58152344 7.87917969 -7.07617188 7.33398438 C-4.76143767 4.84431749 -2.42853755 2.37914357 0 0 Z " fill="#DDE2DA" transform="translate(187,294)"/>
<path d="M0 0 C0.928125 -0.00386719 1.85625 -0.00773437 2.8125 -0.01171875 C3.71226562 -0.01042969 4.61203125 -0.00914063 5.5390625 -0.0078125 C6.34811035 -0.00668457 7.1571582 -0.00555664 7.99072266 -0.00439453 C10.53056638 0.13344257 12.89553141 0.5702733 15.375 1.125 C15.375 1.455 15.375 1.785 15.375 2.125 C4.25125496 3.58385181 -6.46774416 3.11833279 -17.625 2.125 C-17.625 1.795 -17.625 1.465 -17.625 1.125 C-11.72184122 0.10048484 -5.9836834 -0.02514153 0 0 Z " fill="#C5C8BD" transform="translate(263.625,59.875)"/>
<path d="M0 0 C1.98 0 3.96 0 6 0 C5.06811119 1.6074328 4.12925565 3.21082799 3.1875 4.8125 C2.40439453 6.15248047 2.40439453 6.15248047 1.60546875 7.51953125 C0.21467801 9.66831987 -1.1122066 11.29361617 -3 13 C-5 10 -5 10 -4.75 7.5 C-4 5 -4 5 -2 2 C-1.34 2 -0.68 2 0 2 C0 1.34 0 0.68 0 0 Z " fill="#2E3A22" transform="translate(294,344)"/>
<path d="M0 0 C1.8605857 3.72117141 0.01627967 8.12020292 -1 12 C-2.76198498 16.244782 -5.02276831 19.5094525 -8 23 C-7.26262528 14.7045344 -4.44153763 7.03031956 0 0 Z " fill="#C7CEC2" transform="translate(198,98)"/>
<path d="M0 0 C0.33 0 0.66 0 1 0 C2.02500638 6.15003831 1.97608775 11.98850878 1.625 18.1875 C1.58189697 18.9594873 1.53879395 19.73147461 1.49438477 20.52685547 C1.22867812 24.74273431 0.78262148 28.84149431 0 33 C-0.33 33 -0.66 33 -1 33 C-1.02477373 28.94320623 -1.04289493 24.88644194 -1.05493164 20.82958984 C-1.05995118 19.45035027 -1.06676819 18.07111598 -1.07543945 16.69189453 C-1.0876092 14.70607817 -1.09271633 12.72022251 -1.09765625 10.734375 C-1.10289307 9.54038086 -1.10812988 8.34638672 -1.11352539 7.11621094 C-1.01941946 4.53305383 -0.76626155 2.44991581 0 0 Z " fill="#D6DBCE" transform="translate(149,357)"/>
<path d="M0 0 C0.66 0.33 1.32 0.66 2 1 C-0.86874377 4.66561704 -2.75801529 7.0305071 -7 9 C-7.33 9.99 -7.66 10.98 -8 12 C-9.65 12 -11.3 12 -13 12 C-13.33 12.66 -13.66 13.32 -14 14 C-15.32 13.34 -16.64 12.68 -18 12 C-17.28714844 11.55269531 -16.57429688 11.10539062 -15.83984375 10.64453125 C-10.44331467 7.23810845 -5.14638875 3.77401842 0 0 Z " fill="#4C5542" transform="translate(291,410)"/>
<path d="M0 0 C-0.5625 2.375 -0.5625 2.375 -2 5 C-4.3140622 5.73075648 -6.64828869 6.40138258 -9 7 C-9.33 7.99 -9.66 8.98 -10 10 C-10.66 10 -11.32 10 -12 10 C-12.33 10.99 -12.66 11.98 -13 13 C-15.76264289 13.59732819 -18.16032769 14 -21 14 C-5.29268293 0 -5.29268293 0 0 0 Z " fill="#C8CFC1" transform="translate(217,272)"/>
<path d="M0 0 C0.99 0.33 1.98 0.66 3 1 C-0.72346836 5.42094803 -4.29521038 9.57833482 -9 13 C-9.67578125 11.203125 -9.67578125 11.203125 -10 9 C-8.85546875 7.296875 -8.85546875 7.296875 -7.1875 5.75 C-6.37345703 4.96882813 -6.37345703 4.96882813 -5.54296875 4.171875 C-4 3 -4 3 -2 3 C-1.67 2.34 -1.34 1.68 -1 1 C-0.67 0.67 -0.34 0.34 0 0 Z " fill="#ECF2EB" transform="translate(316,383)"/>
<path d="M0 0 C0.33 0 0.66 0 1 0 C1.33 6.6 1.66 13.2 2 20 C2.33 20 2.66 20 3 20 C3.3690205 29.41002278 3.3690205 29.41002278 1 34 C0.67 34 0.34 34 0 34 C0 22.78 0 11.56 0 0 Z " fill="#222313" transform="translate(2,322)"/>
<path d="M0 0 C-3.25641668 1.80476105 -6.45336795 2.73948805 -10.0625 3.625 C-11.10535156 3.88539062 -12.14820312 4.14578125 -13.22265625 4.4140625 C-16 5 -16 5 -19 5 C-19 4.34 -19 3.68 -19 3 C-19.66 2.67 -20.32 2.34 -21 2 C-13.67753847 0.02427486 -7.49843627 -1.61730978 0 0 Z " fill="#242718" transform="translate(103,8)"/>
<path d="M0 0 C2.91221134 0.40635507 5.50116305 0.77196025 8.1875 2 C11.90415408 3.32147701 15.39553676 3.45698013 19.3125 3.625 C20.42334961 3.68300781 20.42334961 3.68300781 21.55664062 3.7421875 C23.37071309 3.83581705 25.18532116 3.91896851 27 4 C27 4.33 27 4.66 27 5 C4.25881425 5.42818132 4.25881425 5.42818132 -4 3 C-4.66 2.34 -5.32 1.68 -6 1 C-4.02 1 -2.04 1 0 1 C0 0.67 0 0.34 0 0 Z " fill="#B8BCB1" transform="translate(194,436)"/>
<path d="M0 0 C5.50808397 0.59015185 10.64878069 1.56663769 16 3 C15 6 15 6 12.9375 7.1875 C12.298125 7.455625 11.65875 7.72375 11 8 C11 7.01 11 6.02 11 5 C7.37 4.34 3.74 3.68 0 3 C0 2.01 0 1.02 0 0 Z " fill="#262A16" transform="translate(392,6)"/>
<path d="M0 0 C-0.33 0.99 -0.66 1.98 -1 3 C-9.91 3.99 -9.91 3.99 -19 5 C-19.33 4.01 -19.66 3.02 -20 2 C-18.824375 2.04125 -17.64875 2.0825 -16.4375 2.125 C-10.71782423 2.14521087 -5.7327371 -0.34743861 0 0 Z " fill="#232A12" transform="translate(381,494)"/>
<path d="M0 0 C4.52065428 -0.049377 9.04115217 -0.08570823 13.56201172 -0.10986328 C15.10045098 -0.11993118 16.63887107 -0.13358646 18.17724609 -0.15087891 C20.38644133 -0.17509317 22.59538395 -0.18647491 24.8046875 -0.1953125 C25.49432587 -0.20563507 26.18396423 -0.21595764 26.89450073 -0.22659302 C28.59800906 -0.22699478 30.30085943 -0.12191026 32 0 C32.66 0.66 33.32 1.32 34 2 C31.29120665 3.35439668 28.99066732 3.06501451 26 3 C26 2.34 26 1.68 26 1 C17.42 1 8.84 1 0 1 C0 0.67 0 0.34 0 0 Z " fill="#3A3B27" transform="translate(152,1)"/>
<path d="M0 0 C0.66 0.33 1.32 0.66 2 1 C-0.97 5.29 -3.94 9.58 -7 14 C-7.66 12.68 -8.32 11.36 -9 10 C-8.07456291 8.65826597 -7.13422595 7.32679841 -6.1875 6 C-5.66542969 5.2575 -5.14335937 4.515 -4.60546875 3.75 C-3.81076172 2.88375 -3.81076172 2.88375 -3 2 C-2.01 2 -1.02 2 0 2 C0 1.34 0 0.68 0 0 Z " fill="#EDF0E7" transform="translate(334,359)"/>
<path d="M0 0 C0.94314127 3.41610225 1.08065117 6.45134864 1 10 C0.34 10 -0.32 10 -1 10 C-1.66 11.65 -2.32 13.3 -3 15 C-3.33 14.34 -3.66 13.68 -4 13 C-4.66 13 -5.32 13 -6 13 C-4.31326082 8.50202887 -2.18326108 4.27113698 0 0 Z " fill="#D6DACF" transform="translate(303,337)"/>
<path d="M0 0 C0.5775 0.495 1.155 0.99 1.75 1.5 C4.10400629 3.36980013 4.10400629 3.36980013 8 3 C9.0625 5.375 9.0625 5.375 10 8 C9.67 8.66 9.34 9.32 9 10 C5.96147295 8.59023295 3.4060405 6.91129772 0.75 4.875 C0.04359375 4.33617187 -0.6628125 3.79734375 -1.390625 3.2421875 C-1.92171875 2.83226562 -2.4528125 2.42234375 -3 2 C-2.01 1.34 -1.02 0.68 0 0 Z " fill="#DCE0D7" transform="translate(260,223)"/>
<path d="M0 0 C0.56332031 0.37382812 1.12664062 0.74765625 1.70703125 1.1328125 C-0.24816259 2.30473297 -2.20722265 3.4702054 -4.16796875 4.6328125 C-5.25851562 5.2825 -6.3490625 5.9321875 -7.47265625 6.6015625 C-10.29296875 8.1328125 -10.29296875 8.1328125 -12.29296875 8.1328125 C-11.94213287 5.36180366 -11.57930453 4.36397202 -9.3671875 2.578125 C-8.57957031 2.14242188 -7.79195313 1.70671875 -6.98046875 1.2578125 C-5.81064453 0.58105469 -5.81064453 0.58105469 -4.6171875 -0.109375 C-2.29296875 -0.8671875 -2.29296875 -0.8671875 0 0 Z " fill="#EBEFE7" transform="translate(279.29296875,416.8671875)"/>
<path d="M0 0 C3.82669043 3.42388092 5.72278474 6.00724943 7 11 C5.35 11 3.7 11 2 11 C1.896875 10.401875 1.79375 9.80375 1.6875 9.1875 C0.91123545 6.71756736 -0.07088921 5.67748765 -2 4 C-1.34 2.68 -0.68 1.36 0 0 Z " fill="#E0E4DD" transform="translate(331,237)"/>
<path d="M0 0 C1.4943899 2.98877979 0.91874257 4.85002546 0 8 C-2.5 9.1875 -2.5 9.1875 -5 10 C-5.33 10.99 -5.66 11.98 -6 13 C-6.66 13 -7.32 13 -8 13 C-6.40956621 7.91061189 -3.2553049 4.12543357 0 0 Z " fill="#DEE2D9" transform="translate(207,85)"/>
<path d="M0 0 C0 0.66 0 1.32 0 2 C0.66 2.33 1.32 2.66 2 3 C0.54261898 3.98058352 -0.91593675 4.95942132 -2.375 5.9375 C-3.18710938 6.48277344 -3.99921875 7.02804688 -4.8359375 7.58984375 C-7 9 -7 9 -9 10 C-9.33 9.01 -9.66 8.02 -10 7 C-3.18421053 0 -3.18421053 0 0 0 Z " fill="#343D27" transform="translate(226,66)"/>
<path d="M0 0 C2.32590854 3.63423209 2.16265833 6.77088331 2 11 C1.34 11 0.68 11 0 11 C0 14.96 0 18.92 0 23 C-0.33 23 -0.66 23 -1 23 C-1.02887512 19.35418313 -1.04675585 15.70839537 -1.0625 12.0625 C-1.07087891 11.02158203 -1.07925781 9.98066406 -1.08789062 8.90820312 C-1.09272461 7.42416992 -1.09272461 7.42416992 -1.09765625 5.91015625 C-1.10289307 4.99371338 -1.10812988 4.07727051 -1.11352539 3.13305664 C-1 1 -1 1 0 0 Z " fill="#232815" transform="translate(493,184)"/>
<path d="M0 0 C0.66 0.33 1.32 0.66 2 1 C-3.14285714 7.57142857 -3.14285714 7.57142857 -7 9 C-8.32 8.01 -9.64 7.02 -11 6 C-9.21385682 4.96953278 -7.42089982 3.95086764 -5.625 2.9375 C-4.62726563 2.36902344 -3.62953125 1.80054688 -2.6015625 1.21484375 C-1.74304688 0.81394531 -0.88453125 0.41304688 0 0 Z " fill="#474E3D" transform="translate(271,423)"/>
<path d="M0 0 C2.52460333 3.78690499 2.07145751 5.49847671 1.4921875 9.8359375 C0.8959763 12.45737405 -0.10204551 14.10204551 -2 16 C-2.66 15.34 -3.32 14.68 -4 14 C-2.125 8.125 -2.125 8.125 -1 7 C-0.63239269 4.67182036 -0.29758419 2.3381615 0 0 Z " fill="#DAE0D3" transform="translate(317,82)"/>
<path d="M0 0 C0.33 0 0.66 0 1 0 C2.28744624 5.7130427 3.48919253 11.12968967 3 17 C2.34 17.66 1.68 18.32 1 19 C0.6603981 17.12612523 0.32861309 15.25083303 0 13.375 C-0.2784375 11.80878906 -0.2784375 11.80878906 -0.5625 10.2109375 C-0.98879664 7.08222467 -1.14792921 4.1527413 -1 1 C-0.67 0.67 -0.34 0.34 0 0 Z " fill="#1F2410" transform="translate(8,392)"/>
<path d="M0 0 C0.33 0.33 0.66 0.66 1 1 C2.51469448 1.23192865 4.03754562 1.41215238 5.5625 1.5625 C6.38878906 1.64628906 7.21507812 1.73007812 8.06640625 1.81640625 C8.70449219 1.87699219 9.34257812 1.93757812 10 2 C10 2.33 10 2.66 10 3 C0.62122392 3.1598655 -8.65190221 2.66433182 -18 2 C-18 1.67 -18 1.34 -18 1 C-5.68441065 -0.24714829 -5.68441065 -0.24714829 0 0 Z " fill="#2D2D1E" transform="translate(354,1)"/>
<path d="M0 0 C1.43739513 -0.02712066 2.87493863 -0.04645067 4.3125 -0.0625 C5.51326172 -0.07990234 5.51326172 -0.07990234 6.73828125 -0.09765625 C9 0 9 0 12 1 C14.63804589 0.60602665 14.63804589 0.60602665 17 0 C17.33 0.99 17.66 1.98 18 3 C12.23917868 3.12001711 6.68351614 3.0149136 1 2 C0.67 1.34 0.34 0.68 0 0 Z " fill="#222812" transform="translate(115,495)"/>
<path d="M0 0 C0.598125 0.165 1.19625 0.33 1.8125 0.5 C4.11344336 1.1114124 4.11344336 1.1114124 7 1 C7 1.66 7 2.32 7 3 C7.66 3.33 8.32 3.66 9 4 C8.67 4.33 8.34 4.66 8 5 C8.804375 5.268125 9.60875 5.53625 10.4375 5.8125 C11.283125 6.204375 12.12875 6.59625 13 7 C13.33 7.99 13.66 8.98 14 10 C8.03868848 8.65870491 4.19807984 5.25135496 0 1 C0 0.67 0 0.34 0 0 Z " fill="#D0D5CA" transform="translate(165,423)"/>
<path d="M0 0 C-0.125 1.8125 -0.125 1.8125 -1 4 C-4.0625 5.75 -4.0625 5.75 -7 7 C-7 6.01 -7 5.02 -7 4 C-7.66 4 -8.32 4 -9 4 C-9 3.34 -9 2.68 -9 2 C-5.62902617 0.50178941 -3.79557881 0 0 0 Z " fill="#2F3A22" transform="translate(257,384)"/>
<path d="M0 0 C0.33 0.66 0.66 1.32 1 2 C0 4 0 4 -2.375 5.3125 C-5.18198205 6.81606709 -5.18198205 6.81606709 -6.4375 9.6875 C-6.953125 10.450625 -7.46875 11.21375 -8 12 C-11.1875 12.3125 -11.1875 12.3125 -14 12 C-9.73412126 7.45890328 -4.96387672 3.75264754 0 0 Z " fill="#C6CCBF" transform="translate(278,371)"/>
<path d="M0 0 C1 2 1 2 1 6 C0.34 6 -0.32 6 -1 6 C-1.33 7.65 -1.66 9.3 -2 11 C-2.66 11 -3.32 11 -4 11 C-3.67 12.98 -3.34 14.96 -3 17 C-4.65 17.66 -6.3 18.32 -8 19 C-6.00386732 12.2813095 -3.2708579 6.19265192 0 0 Z " fill="#575E4D" transform="translate(343,343)"/>
<path d="M0 0 C0.99 0 1.98 0 3 0 C2.34 4.62 1.68 9.24 1 14 C0.34 14 -0.32 14 -1 14 C-1.08333357 9.1666528 -0.95261487 4.76307437 0 0 Z " fill="#262816" transform="translate(487,386)"/>
<path d="M0 0 C0 3.62453269 -0.92469613 5.07920195 -3 8 C-3.99 8.33 -4.98 8.66 -6 9 C-6.309375 9.66 -6.61875 10.32 -6.9375 11 C-7.288125 11.66 -7.63875 12.32 -8 13 C-10.06640625 13.625 -10.06640625 13.625 -12 14 C-8 9.33333333 -4 4.66666667 0 0 Z " fill="#C8CDC1" transform="translate(291,357)"/>
<path d="M0 0 C2.475 0.495 2.475 0.495 5 1 C5 1.66 5 2.32 5 3 C5.99 3 6.98 3 8 3 C8 4.98 8 6.96 8 9 C6.84775972 8.07038578 5.70340824 7.1309875 4.5625 6.1875 C3.60537109 5.40439453 3.60537109 5.40439453 2.62890625 4.60546875 C1 3 1 3 0 0 Z " fill="#DEE5D8" transform="translate(209,186)"/>
<path d="M0 0 C0 0.99 0 1.98 0 3 C-0.99 3.33 -1.98 3.66 -3 4 C-4.03013277 5.64821244 -5.03114628 7.31503702 -6 9 C-6.99 9.495 -6.99 9.495 -8 10 C-8 9.34 -8 8.68 -8 8 C-8.66 7.67 -9.32 7.34 -10 7 C-9.09325024 6.01164277 -8.17410978 5.03464519 -7.25 4.0625 C-6.73953125 3.51722656 -6.2290625 2.97195312 -5.703125 2.41015625 C-3.80621924 0.83955308 -2.40298839 0.41268714 0 0 Z " fill="#E1E6DB" transform="translate(220,75)"/>
<path d="M0 0 C-0.33 0.99 -0.66 1.98 -1 3 C-4.63 3.33 -8.26 3.66 -12 4 C-12 3.34 -12 2.68 -12 2 C-10.56656 1.46809459 -9.12804633 0.94984742 -7.6875 0.4375 C-6.48673828 0.00244141 -6.48673828 0.00244141 -5.26171875 -0.44140625 C-3 -1 -3 -1 0 0 Z " fill="#262B17" transform="translate(393,492)"/>
<path d="M0 0 C0.33 0 0.66 0 1 0 C1.06058594 1.10859375 1.12117187 2.2171875 1.18359375 3.359375 C1.26802951 4.8229282 1.35267599 6.28646925 1.4375 7.75 C1.47681641 8.47960937 1.51613281 9.20921875 1.55664062 9.9609375 C1.76147098 13.4272973 2.0852002 16.65333026 3 20 C1.68 20 0.36 20 -1 20 C-1.38218767 18.34385343 -1.71395102 16.67542976 -2 15 C-1.67 14.67 -1.34 14.34 -1 14 C-0.76472227 11.65012738 -0.58613583 9.29443961 -0.4375 6.9375 C-0.35371094 5.64714844 -0.26992187 4.35679687 -0.18359375 3.02734375 C-0.12300781 2.02832031 -0.06242188 1.02929688 0 0 Z " fill="#C0C4B7" transform="translate(186,368)"/>
<path d="M0 0 C3.71368887 1.23789629 4.77354181 2.85224877 7 6 C7 6.66 7 7.32 7 8 C5.68 7.67 4.36 7.34 3 7 C3 6.34 3 5.68 3 5 C2.401875 4.896875 1.80375 4.79375 1.1875 4.6875 C-1.28243264 3.91123545 -2.32251235 2.92911079 -4 1 C-2.68 1.33 -1.36 1.66 0 2 C0 1.34 0 0.68 0 0 Z " fill="#D1D4C9" transform="translate(250,216)"/>
<path d="M0 0 C1.1446875 0.2784375 1.1446875 0.2784375 2.3125 0.5625 C5.08967375 1.22819173 5.08967375 1.22819173 8 0 C10.5654594 2.5654594 10.54046087 4.47686668 11 8 C6.99698968 6.23867546 3.3971023 3.73867517 0 1 C0 0.67 0 0.34 0 0 Z " fill="#D1D7CA" transform="translate(224,201)"/>
<path d="M0 0 C0.66 0.33 1.32 0.66 2 1 C1.04663979 2.31611677 0.08714226 3.62778961 -0.875 4.9375 C-1.40867187 5.66839844 -1.94234375 6.39929688 -2.4921875 7.15234375 C-4 9 -4 9 -6 10 C-6.33 9.01 -6.66 8.02 -7 7 C-4.89921489 3.92385037 -3.11378405 2.07585603 0 0 Z " fill="#E5ECE2" transform="translate(311,102)"/>
<path d="M0 0 C0.66 0.33 1.32 0.66 2 1 C1.67 2.32 1.34 3.64 1 5 C2.32 5 3.64 5 5 5 C5.66 6.32 6.32 7.64 7 9 C-0.5 6 -0.5 6 -8 3 C-7.38382812 2.85820313 -6.76765625 2.71640625 -6.1328125 2.5703125 C-3.93806109 2.06864317 -3.93806109 2.06864317 -1.875 0.875 C-1.25625 0.58625 -0.6375 0.2975 0 0 Z " fill="#C9CDC3" transform="translate(282,97)"/>
<path d="M0 0 C0.66 0.33 1.32 0.66 2 1 C0.68 3.64 -0.64 6.28 -2 9 C-3.32 9 -4.64 9 -6 9 C-4.68775452 5.06326356 -3.08089673 2.77280706 0 0 Z " fill="#535B4A" transform="translate(240,105)"/>
<path d="M0 0 C0.66 0.33 1.32 0.66 2 1 C-0.54642509 4.11229733 -3.25510724 4.77883932 -7 6 C-7.33 6.66 -7.66 7.32 -8 8 C-9.97888961 8.72693904 -11.97954558 9.39816251 -14 10 C-10.04055212 5.52965562 -5.55413553 2.2914901 0 0 Z " fill="#BAC0B3" transform="translate(232,66)"/>
<path d="M0 0 C0.33 0 0.66 0 1 0 C1.05787784 3.62493334 1.0935542 7.24974857 1.125 10.875 C1.15013672 12.42380859 1.15013672 12.42380859 1.17578125 14.00390625 C1.18222656 14.99003906 1.18867188 15.97617187 1.1953125 16.9921875 C1.20578613 17.90339355 1.21625977 18.81459961 1.22705078 19.75341797 C1 22 1 22 -1 24 C-1.5625 22.0625 -1.5625 22.0625 -2 20 C-1.67 19.67 -1.34 19.34 -1 19 C-0.84379445 17.58672053 -0.74943827 16.1664541 -0.68359375 14.74609375 C-0.64169922 13.89208984 -0.59980469 13.03808594 -0.55664062 12.15820312 C-0.51732422 11.26037109 -0.47800781 10.36253906 -0.4375 9.4375 C-0.39431641 8.53580078 -0.35113281 7.63410156 -0.30664062 6.70507812 C-0.20021858 4.47021515 -0.09820012 2.23523692 0 0 Z " fill="#4F5743" transform="translate(147,368)"/>
<path d="M0 0 C0.66 0 1.32 0 2 0 C1.54337885 4.10959039 1.19432019 6.31677104 -2 9 C-2.66 9.99 -3.32 10.98 -4 12 C-3.54177532 8.53058454 -3.10868317 5.32604951 -2 2 C-1.34 2 -0.68 2 0 2 C0 1.34 0 0.68 0 0 Z " fill="#D2D6C9" transform="translate(194,109)"/>
<path d="M0 0 C1.8125 0.125 1.8125 0.125 4 1 C5.8125 3.9375 5.8125 3.9375 7 7 C6.67 7.66 6.34 8.32 6 9 C5.34 9 4.68 9 4 9 C0 3.70588235 0 3.70588235 0 0 Z " fill="#1E2212" transform="translate(470,58)"/>
<path d="M0 0 C1.5625 1 1.5625 1 3 3 C2.96726452 5.76614782 2.49404328 8.26030547 2 11 C-0.14208427 7.7868736 -0.59687808 5.78934603 -1 2 C-0.67 1.34 -0.34 0.68 0 0 Z " fill="#DEE2DC" transform="translate(307,268)"/>
<path d="M0 0 C0 0.66 0 1.32 0 2 C-0.99 2.495 -0.99 2.495 -2 3 C-2.33 3.99 -2.66 4.98 -3 6 C-5.375 6.625 -5.375 6.625 -8 7 C-8.66 6.34 -9.32 5.68 -10 5 C-8.71186658 4.16121545 -7.41936744 3.32913217 -6.125 2.5 C-5.40570313 2.0359375 -4.68640625 1.571875 -3.9453125 1.09375 C-2 0 -2 0 0 0 Z " fill="#CAD0C3" transform="translate(263,384)"/>
<path d="M0 0 C0.33 0 0.66 0 1 0 C1.07654536 4.51617599 1.10228696 8.59085217 0 13 C-2.45811625 9.31282562 -2.31118164 7.35654296 -2 3 C-1.34 2.01 -0.68 1.02 0 0 Z " fill="#E9ECE5" transform="translate(350,310)"/>
<path d="M0 0 C0.58265625 0.22558594 1.1653125 0.45117188 1.765625 0.68359375 C0.775625 1.17859375 0.775625 1.17859375 -0.234375 1.68359375 C-0.564375 2.67359375 -0.894375 3.66359375 -1.234375 4.68359375 C-3.99701789 5.28092194 -6.39470269 5.68359375 -9.234375 5.68359375 C-8.16544282 4.64769037 -7.07859012 3.63025433 -5.984375 2.62109375 C-5.38109375 2.05261719 -4.7778125 1.48414063 -4.15625 0.8984375 C-2.234375 -0.31640625 -2.234375 -0.31640625 0 0 Z " fill="#D4D6CE" transform="translate(205.234375,280.31640625)"/>
<path d="M0 0 C1.32 0.66 2.64 1.32 4 2 C-2.75 6 -2.75 6 -5 6 C-5.33 6.66 -5.66 7.32 -6 8 C-6 5 -6 5 -4 3 C-2.67607028 1.98758315 -1.34400833 0.98560611 0 0 Z " fill="#1F2213" transform="translate(70,15)"/>
<path d="M0 0 C0.33 0.66 0.66 1.32 1 2 C-3.455 3.485 -3.455 3.485 -8 5 C-7.25 2.5625 -7.25 2.5625 -6 0 C-3.40713222 -1.13437965 -2.55267344 -1.27633672 0 0 Z " fill="#E2E5DA" transform="translate(261,427)"/>
<path d="M0 0 C0.66 0.33 1.32 0.66 2 1 C2 2.33333333 2 3.66666667 2 5 C0.35 5 -1.3 5 -3 5 C-3.33 5.66 -3.66 6.32 -4 7 C-4.99 6.34 -5.98 5.68 -7 5 C-4.69 3.35 -2.38 1.7 0 0 Z " fill="#4E5742" transform="translate(234,304)"/>
<path d="M0 0 C2.64 1.65 5.28 3.3 8 5 C7.01 5.66 6.02 6.32 5 7 C1.83884224 5.63016497 1.0072908 5.0109362 -1 2 C-0.67 1.34 -0.34 0.68 0 0 Z " fill="#3A4430" transform="translate(283,245)"/>
<path d="M0 0 C2.31 1.98 4.62 3.96 7 6 C6.67 6.66 6.34 7.32 6 8 C3.525 7.01 3.525 7.01 1 6 C1 5.34 1 4.68 1 4 C0.01 3.67 -0.98 3.34 -2 3 C-1.34 2.67 -0.68 2.34 0 2 C0 1.34 0 0.68 0 0 Z " fill="#D5D9CE" transform="translate(310,74)"/>
<path d="M0 0 C2.125 0.375 2.125 0.375 4 1 C3.19152271 2.16945792 2.37810888 3.33550461 1.5625 4.5 C1.11003906 5.1496875 0.65757812 5.799375 0.19140625 6.46875 C-0.20175781 6.9740625 -0.59492188 7.479375 -1 8 C-1.33 8 -1.66 8 -2 8 C-2.125 5.125 -2.125 5.125 -2 2 C-1.34 1.34 -0.68 0.68 0 0 Z " fill="#E9ECE3" transform="translate(321,375)"/>
<path d="M0 0 C0.33 0.66 0.66 1.32 1 2 C1.66 2 2.32 2 3 2 C3.625 4.3125 3.625 4.3125 4 7 C3.01 8.485 3.01 8.485 2 10 C-1.07692308 4.58461538 -1.07692308 4.58461538 -0.6875 1.625 C-0.460625 1.08875 -0.23375 0.5525 0 0 Z " fill="#39422E" transform="translate(336,238)"/>
<path d="M0 0 C1.41623216 -0.05447047 2.83308191 -0.09300508 4.25 -0.125 C5.03890625 -0.14820313 5.8278125 -0.17140625 6.640625 -0.1953125 C9 0 9 0 13 2 C7.06 2.495 7.06 2.495 1 3 C0.67 2.01 0.34 1.02 0 0 Z " fill="#20210D" transform="translate(361,496)"/>
<path d="M0 0 C0.66 0.99 1.32 1.98 2 3 C0.25 5.0625 0.25 5.0625 -2 7 C-3.32 6.67 -4.64 6.34 -6 6 C-4.02 4.02 -2.04 2.04 0 0 Z " fill="#424A35" transform="translate(214,320)"/>
<path d="M0 0 C0 4.1041911 -1.45843064 5.84021107 -4 9 C-6.75 9.875 -6.75 9.875 -9 10 C-8.06409496 8.8944811 -7.12620142 7.79064547 -6.1875 6.6875 C-5.66542969 6.07261719 -5.14335937 5.45773437 -4.60546875 4.82421875 C-3.12827531 3.14575321 -1.59960869 1.56117966 0 0 Z " fill="#D5DBCF" transform="translate(187,294)"/>
<path d="M0 0 C1.32 0.33 2.64 0.66 4 1 C0.535 3.97 0.535 3.97 -3 7 C-3.33 5.68 -3.66 4.36 -4 3 C-2.25 1.4375 -2.25 1.4375 0 0 Z " fill="#394230" transform="translate(189,288)"/>
<path d="M0 0 C1.9375 0.75 1.9375 0.75 4 2 C4.875 4 4.875 4 5 6 C4.34 6.66 3.68 7.32 3 8 C1.02 4.535 1.02 4.535 -1 1 C-0.67 0.67 -0.34 0.34 0 0 Z " fill="#E7EDE6" transform="translate(203,176)"/>
<path d="M0 0 C0 3.46877176 -0.61849799 5.82254537 -2 9 C-4.125 9.875 -4.125 9.875 -6 10 C-4.6302836 6.00499382 -2.74277578 3.19990508 0 0 Z " fill="#58614E" transform="translate(334,362)"/>
<path d="M0 0 C0.90492188 0.02320313 1.80984375 0.04640625 2.7421875 0.0703125 C4.10730469 0.09738281 4.10730469 0.09738281 5.5 0.125 C6.19867188 0.14820313 6.89734375 0.17140625 7.6171875 0.1953125 C6.41015625 1.71484375 6.41015625 1.71484375 4.6171875 3.1953125 C2.35546875 3.26953125 2.35546875 3.26953125 -0.0703125 2.8828125 C-1.28267578 2.70298828 -1.28267578 2.70298828 -2.51953125 2.51953125 C-3.13441406 2.41253906 -3.74929687 2.30554688 -4.3828125 2.1953125 C-2.3828125 0.1953125 -2.3828125 0.1953125 0 0 Z " fill="#232D17" transform="translate(254.3828125,297.8046875)"/>
<path d="M0 0 C0.66 0.33 1.32 0.66 2 1 C2 2.32 2 3.64 2 5 C-2.75 6.125 -2.75 6.125 -5 5 C-3.35 3.35 -1.7 1.7 0 0 Z " fill="#DBDFD6" transform="translate(193,288)"/>
<path d="M0 0 C3.08089673 2.77280706 4.68775452 5.06326356 6 9 C4.02 8.01 2.04 7.02 0 6 C0 4.02 0 2.04 0 0 Z " fill="#576050" transform="translate(300,263)"/>
<path d="M0 0 C2.97 1.98 2.97 1.98 6 4 C5.01 4.66 4.02 5.32 3 6 C1.35 5.01 -0.3 4.02 -2 3 C-1.34 2.01 -0.68 1.02 0 0 Z " fill="#ECF0E6" transform="translate(249,172)"/>
<path d="M0 0 C2.66666667 2.66666667 5.33333333 5.33333333 8 8 C7.01 8.33 6.02 8.66 5 9 C5 8.34 5 7.68 5 7 C4.01 7.33 3.02 7.66 2 8 C2 6.68 2 5.36 2 4 C1.34 4 0.68 4 0 4 C0 2.68 0 1.36 0 0 Z " fill="#DADFD4" transform="translate(191,392)"/>
<path d="M0 0 C1.89575251 -0.02721176 3.79161979 -0.04649136 5.6875 -0.0625 C6.74324219 -0.07410156 7.79898437 -0.08570313 8.88671875 -0.09765625 C11.72410262 -0.00865425 14.2438919 0.35060162 17 1 C17 1.33 17 1.66 17 2 C14.69 2.33 12.38 2.66 10 3 C10 2.34 10 1.68 10 1 C6.7 1 3.4 1 0 1 C0 0.67 0 0.34 0 0 Z " fill="#5D6554" transform="translate(252,297)"/>
<path d="M0 0 C0.66 0.33 1.32 0.66 2 1 C2 1.66 2 2.32 2 3 C-2.38461538 6 -2.38461538 6 -5 6 C-4.75 4.125 -4.75 4.125 -4 2 C-2.0625 0.6875 -2.0625 0.6875 0 0 Z " fill="#F4F6EF" transform="translate(199,285)"/>
<path d="M0 0 C4.29 0.33 8.58 0.66 13 1 C9.51131349 3.32579101 8.10281481 3.41865457 4 3 C2.68 2.01 1.36 1.02 0 0 Z " fill="#242A16" transform="translate(110,4)"/>
<path d="M0 0 C3 1 3 1 5 4 C5.99 4.66 6.98 5.32 8 6 C1.47692308 5.38461538 1.47692308 5.38461538 -0.9375 3.4375 C-1.288125 2.963125 -1.63875 2.48875 -2 2 C-1.01 2 -0.02 2 1 2 C0.67 1.34 0.34 0.68 0 0 Z " fill="#4F5744" transform="translate(198,395)"/>
<path d="M0 0 C0.33 0 0.66 0 1 0 C1.33 2.64 1.66 5.28 2 8 C1.34 8 0.68 8 0 8 C-0.33 8.66 -0.66 9.32 -1 10 C-1.02689216 8.52093108 -1.04634621 7.04172517 -1.0625 5.5625 C-1.07410156 4.73878906 -1.08570313 3.91507812 -1.09765625 3.06640625 C-1 1 -1 1 0 0 Z " fill="#262913" transform="translate(489,373)"/>
<path d="M0 0 C2.34545328 2.34545328 2.95508888 3.95985838 3.09765625 7.26171875 C3.08605469 8.06222656 3.07445312 8.86273438 3.0625 9.6875 C3.05347656 10.49574219 3.04445313 11.30398438 3.03515625 12.13671875 C3.02355469 12.75160156 3.01195312 13.36648438 3 14 C2.67 14 2.34 14 2 14 C1.8046875 11.94921875 1.609375 9.8984375 1.4140625 7.84765625 C1.27742188 7.23792969 1.14078125 6.62820313 1 6 C0.34 5.67 -0.32 5.34 -1 5 C-0.67 3.35 -0.34 1.7 0 0 Z " fill="#BFC6BA" transform="translate(268,284)"/>
<path d="M0 0 C2.1875 1.3125 2.1875 1.3125 4 3 C4 3.66 4 4.32 4 5 C4.33 5.66 4.66 6.32 5 7 C1.63408134 5.55746343 -0.51047079 3.66735273 -3 1 C-2.01 0.67 -1.02 0.34 0 0 Z " fill="#C8CDC3" transform="translate(260,223)"/>
<path d="M0 0 C4.67692308 1.47692308 4.67692308 1.47692308 6.3125 4.125 C6.539375 4.74375 6.76625 5.3625 7 6 C3 6 3 6 1.25 4.6875 C0 3 0 3 0 0 Z " fill="#4A533D" transform="translate(287,106)"/>
<path d="M0 0 C0.66 0.33 1.32 0.66 2 1 C1.34 2.32 0.68 3.64 0 5 C-0.99 5 -1.98 5 -3 5 C-3 4.01 -3 3.02 -3 2 C-2.01 1.34 -1.02 0.68 0 0 Z " fill="#3C462F" transform="translate(297,406)"/>
<path d="M0 0 C0.99 0.495 0.99 0.495 2 1 C2 1.66 2 2.32 2 3 C2.99 2.67 3.98 2.34 5 2 C5 4.31 5 6.62 5 9 C1.7457985 6.16569547 0.4793247 4.31392226 0 0 Z " fill="#ADAFA5" transform="translate(153,405)"/>
<path d="M0 0 C0.33 0.99 0.66 1.98 1 3 C-1.31 4.98 -3.62 6.96 -6 9 C-6.66 8.67 -7.32 8.34 -8 8 C-5.36 5.36 -2.72 2.72 0 0 Z " fill="#545E4D" transform="translate(309,394)"/>
<path d="M0 0 C0.99 0.33 1.98 0.66 3 1 C1.35 2.98 -0.3 4.96 -2 7 C-2.33 6.01 -2.66 5.02 -3 4 C-1 1 -1 1 0 0 Z " fill="#DBE2D6" transform="translate(316,383)"/>
<path d="M0 0 C0.66 0.33 1.32 0.66 2 1 C0.7260411 3.03833424 -0.61061923 5.03852126 -2 7 C-2.66 7 -3.32 7 -4 7 C-4.33 6.01 -4.66 5.02 -5 4 C-4.34 3.34 -3.68 2.68 -3 2 C-2.01 2 -1.02 2 0 2 C0 1.34 0 0.68 0 0 Z " fill="#E3E8E1" transform="translate(334,359)"/>
<path d="M0 0 C0.66 0 1.32 0 2 0 C2.33 1.32 2.66 2.64 3 4 C1.02 4.99 1.02 4.99 -1 6 C-1.33 4.68 -1.66 3.36 -2 2 C-1.34 2 -0.68 2 0 2 C0 1.34 0 0.68 0 0 Z " fill="#37412A" transform="translate(194,282)"/>
<path d="M0 0 C0.33 0 0.66 0 1 0 C1.33 3.3 1.66 6.6 2 10 C1.01 10.495 1.01 10.495 0 11 C-2.21538462 4.6 -2.21538462 4.6 -1.125 1.5625 C-0.75375 1.046875 -0.3825 0.53125 0 0 Z " fill="#262E14" transform="translate(491,146)"/>
<path d="M0 0 C1.37432457 3.81756824 0.67975039 7.07255329 0 11 C-0.33 11 -0.66 11 -1 11 C-1.33 7.7 -1.66 4.4 -2 1 C-1.34 0.67 -0.68 0.34 0 0 Z " fill="#242A18" transform="translate(6,124)"/>
<path d="M0 0 C0.33 1.32 0.66 2.64 1 4 C-0.8125 5.5625 -0.8125 5.5625 -3 7 C-3.99 6.67 -4.98 6.34 -6 6 C-4.02 4.02 -2.04 2.04 0 0 Z " fill="#454E3D" transform="translate(316,387)"/>
<path d="M0 0 C0.99 0.66 1.98 1.32 3 2 C1.71034824 3.37562854 0.37310707 4.70766393 -1 6 C-1.66 6 -2.32 6 -3 6 C-2.625 3.5625 -2.625 3.5625 -2 1 C-1.34 0.67 -0.68 0.34 0 0 Z " fill="#323D25" transform="translate(277,368)"/>
<path d="M0 0 C1.125 3.75 1.125 3.75 0 6 C-2.0625 7.125 -2.0625 7.125 -4 8 C-2.87548273 5.0280615 -1.77706209 2.66559313 0 0 Z " fill="#C1C6BA" transform="translate(167,317)"/>
<path d="M0 0 C3.16115776 1.36983503 3.9927092 1.9890638 6 5 C5.01 5 4.02 5 3 5 C2.67 5.99 2.34 6.98 2 8 C0.875 4.25 0.875 4.25 2 2 C1.34 2 0.68 2 0 2 C0 1.34 0 0.68 0 0 Z " fill="#E1E6DD" transform="translate(254,267)"/>
<path d="M0 0 C2.31 0.66 4.62 1.32 7 2 C6.67 3.32 6.34 4.64 6 6 C3.97945196 4.35830472 1.97956942 2.69088222 0 1 C0 0.67 0 0.34 0 0 Z " fill="#CDD3C5" transform="translate(217,195)"/>
<path d="M0 0 C3.465 1.98 3.465 1.98 7 4 C5.125 5.0625 5.125 5.0625 3 6 C2.34 5.67 1.68 5.34 1 5 C0.375 2.4375 0.375 2.4375 0 0 Z " fill="#E7EBE0" transform="translate(271,188)"/>
<path d="M0 0 C1.98 1.65 3.96 3.3 6 5 C5.01 5.495 5.01 5.495 4 6 C3.67 6.66 3.34 7.32 3 8 C0 2.25 0 2.25 0 0 Z " fill="#DDE0D9" transform="translate(243,166)"/>
<path d="M0 0 C0.33 0.66 0.66 1.32 1 2 C-0.25 4.5625 -0.25 4.5625 -2 7 C-2.99 7.33 -3.98 7.66 -5 8 C-3.8141763 4.62496331 -2.72426311 2.35277269 0 0 Z " fill="#BFC7B8" transform="translate(207,85)"/>
<path d="M0 0 C0.99 0.99 1.98 1.98 3 3 C3.66 2.67 4.32 2.34 5 2 C4.34 3.65 3.68 5.3 3 7 C1.35 5.35 -0.3 3.7 -2 2 C-1.34 2 -0.68 2 0 2 C0 1.34 0 0.68 0 0 Z " fill="#353E29" transform="translate(314,73)"/>
<path d="M0 0 C-0.8125 2.4375 -0.8125 2.4375 -2 5 C-2.99 5.33 -3.98 5.66 -5 6 C-5 4.68 -5 3.36 -5 2 C-2 0 -2 0 0 0 Z " fill="#252A1A" transform="translate(39,40)"/>
<path d="M0 0 C0.99 0 1.98 0 3 0 C3 1.98 3 3.96 3 6 C2.01 6.495 2.01 6.495 1 7 C0.67 4.69 0.34 2.38 0 0 Z " fill="#171D0F" transform="translate(10,411)"/>
<path d="M0 0 C1.32 0.33 2.64 0.66 4 1 C3.34 2.32 2.68 3.64 2 5 C0.68 4.34 -0.64 3.68 -2 3 C-1.34 2.01 -0.68 1.02 0 0 Z " fill="#E0E2DB" transform="translate(170,313)"/>
<path d="M0 0 C0.66 0 1.32 0 2 0 C2.66 1.98 3.32 3.96 4 6 C3.34 6.66 2.68 7.32 2 8 C0.93224776 6.03533587 -0.06553465 4.03144641 -1 2 C-0.67 1.34 -0.34 0.68 0 0 Z " fill="#333E29" transform="translate(235,151)"/>
<path d="M0 0 C-0.66 0 -1.32 0 -2 0 C-2.33 0.99 -2.66 1.98 -3 3 C-5.0625 3.6875 -5.0625 3.6875 -7 4 C-7.33 3.01 -7.66 2.02 -8 1 C-3.375 -1.125 -3.375 -1.125 0 0 Z " fill="#1A1C10" transform="translate(82,12)"/>
<path d="M0 0 C0 0.66 0 1.32 0 2 C0.66 2.33 1.32 2.66 2 3 C0.02 3.33 -1.96 3.66 -4 4 C-4 3.34 -4 2.68 -4 2 C-4.66 1.67 -5.32 1.34 -6 1 C-3.92446352 0.4465236 -2.15634036 0 0 0 Z " fill="#1D2013" transform="translate(88,9)"/>
</svg>
